<svg id="Capa_1" enable-background="new 0 0 512.016 512.016" height="512" viewBox="0 0 512.016 512.016" width="512" xmlns="http://www.w3.org/2000/svg"><g><g><path d="m206.05 306.083c-76.688-76.988-97.407-188.871-62.184-284.73 3.419-9.304-7.115-17.577-15.363-12.063-15.383 10.284-29.945 22.324-43.401 36.132-103.259 105.963-101.937 276.34 2.903 380.743 105.167 104.729 274.989 104.467 379.832-.786 12.893-12.943 24.197-26.875 33.921-41.551 5.477-8.266-2.828-18.744-12.136-15.299-95.475 35.335-206.897 14.528-283.572-62.446z" fill="#fee97d"/><g><path d="m489.622 368.529c-19.446 7.197-39.554 12.063-59.894 14.602-105.464 90.692-264.245 86.175-364.395-13.557-19.177-19.098-34.876-40.41-47.119-63.124 12.053 43.946 35.328 85.396 69.791 119.716 105.167 104.729 274.989 104.467 379.832-.786 12.893-12.943 24.197-26.875 33.921-41.551 5.478-8.267-2.828-18.745-12.136-15.3z" fill="#fedf30"/></g><path d="m365.381 132.543 39.281 5.73c6.866 1.002 9.615 9.42 4.659 14.269l-28.482 27.872c-1.964 1.922-2.86 4.683-2.397 7.39l6.716 39.309c1.17 6.848-6.038 12.06-12.189 8.813l-35.048-18.498c-2.453-1.295-5.388-1.295-7.841 0l-35.048 18.498c-6.151 3.247-13.359-1.965-12.189-8.813l6.716-39.309c.462-2.707-.433-5.468-2.397-7.39l-28.482-27.872c-4.956-4.85-2.207-13.267 4.659-14.269l39.281-5.73c2.736-.399 5.099-2.119 6.318-4.597l17.533-35.665c3.071-6.247 11.99-6.247 15.061 0l17.533 35.665c1.217 2.478 3.58 4.198 6.316 4.597z" fill="#fee97d"/><g><path d="m409.321 152.542c4.956-4.85 2.207-13.268-4.659-14.269l-29.523-4.307-8.157 7.982c-7.486 7.325-10.9 17.849-9.137 28.165l1.77 10.358c2.343 13.715-12.092 24.151-24.411 17.649l-8.934-4.715c-9.348-4.934-20.535-4.934-29.883 0l-8.556 4.516-4.987 29.191c-1.17 6.848 6.038 12.06 12.189 8.813l35.048-18.498c2.453-1.295 5.388-1.295 7.841 0l35.048 18.498c6.151 3.247 13.359-1.965 12.189-8.813l-6.716-39.309c-.462-2.707.433-5.468 2.397-7.39z" fill="#fedf30"/></g></g><g><path d="m30.575 126.586c3.757 1.747 8.217.119 9.963-3.637 12.43-26.724 29.23-51.046 49.935-72.293 12.841-13.178 27.039-24.998 42.197-35.131 1.45-.97 2.664-.328 3.259.141.59.464 1.49 1.484.896 3.101-18.045 49.11-21.91 102.211-11.176 153.563 11.018 52.712 36.983 100.794 75.086 139.046 34.269 34.403 76.981 59.227 123.519 71.787.654.177 1.312.261 1.959.261 3.306 0 6.333-2.203 7.236-5.548 1.08-3.999-1.288-8.116-5.287-9.195-43.999-11.875-84.387-35.351-116.8-67.891-36.046-36.188-60.609-81.669-71.031-131.53-10.159-48.599-6.502-98.85 10.573-145.321 2.696-7.339.459-15.214-5.699-20.061-6.167-4.854-14.36-5.178-20.873-.824-16.024 10.714-31.031 23.207-44.602 37.133-21.886 22.459-39.648 48.176-52.792 76.436-1.747 3.756-.119 8.216 3.637 9.963z"/><path d="m507.116 367.133c-4.866-6.141-12.756-8.355-20.097-5.638-40.932 15.149-85.459 19.793-128.77 13.432-4.099-.601-7.908 2.232-8.51 6.331s2.232 7.908 6.331 8.51c45.791 6.726 92.874 1.814 136.156-14.205 1.636-.604 2.666.295 3.134.886.466.588 1.105 1.792.147 3.238-9.573 14.447-20.67 28.039-32.983 40.4-49.283 49.476-114.805 76.796-184.496 76.929-.174 0-.336 0-.511 0-69.477-.003-134.89-27.04-184.22-76.165-35.184-35.037-59.613-79.132-70.648-127.517-10.747-47.121-8.446-96.223 6.652-141.998 1.297-3.934-.839-8.174-4.773-9.472-3.929-1.297-8.174.839-9.472 4.773-15.953 48.369-18.385 100.249-7.031 150.033 11.666 51.153 37.493 97.769 74.688 134.81 52.165 51.948 121.328 80.537 194.803 80.536h.541c73.697-.141 142.983-29.029 195.094-81.343 13.012-13.063 24.74-27.429 34.86-42.701 4.32-6.521 3.968-14.701-.895-20.839z"/><path d="m281.915 185.775c.205.2.298.486.25.766l-6.716 39.309c-1.025 6 1.401 11.948 6.333 15.522 4.939 3.579 11.357 4.034 16.75 1.187l35.049-18.498c.263-.139.575-.138.838 0l35.048 18.498c2.353 1.242 4.9 1.855 7.436 1.855 3.276 0 6.531-1.025 9.314-3.042 4.931-3.574 7.357-9.522 6.333-15.522l-6.716-39.309c-.048-.28.045-.566.25-.766l28.482-27.872c4.343-4.25 5.873-10.479 3.991-16.255-1.883-5.781-6.793-9.918-12.813-10.796l-39.281-5.73c-.291-.042-.541-.224-.669-.484l-17.533-35.666c-2.691-5.475-8.155-8.876-14.26-8.876-6.104 0-11.569 3.401-14.261 8.876l-17.533 35.665c-.128.261-.378.442-.67.484l-39.281 5.73c-6.021.878-10.93 5.015-12.813 10.796-1.881 5.776-.352 12.004 3.991 16.255zm-18.211-39.482c.169-.519.552-.575.716-.599l39.28-5.73c5.184-.755 9.657-4.011 11.966-8.709l17.534-35.665c.073-.148.243-.494.8-.494s.727.346.8.494l17.533 35.666c2.31 4.698 6.783 7.954 11.966 8.709l39.281 5.73c.164.024.547.08.716.599.167.511-.094.766-.22.889l-28.482 27.872c-3.723 3.643-5.421 8.881-4.545 14.013l6.716 39.309c.03.172.091.531-.35.85-.451.328-.797.145-.946.067l-35.047-18.497c-2.324-1.227-4.873-1.84-7.422-1.84s-5.098.613-7.42 1.84l-35.048 18.498c-.148.078-.495.261-.946-.067-.44-.319-.379-.678-.35-.85l6.716-39.309c.876-5.132-.822-10.37-4.545-14.013l-28.482-27.872c-.127-.125-.387-.38-.221-.891z"/></g></g></svg>